{"title":"The Matrix Trilogy 1080p [Dual Audio][Eng Hindi]Current_HD","uid":6219499,"size":7857483137,"categoryP":"video","categoryS":"hd___movies","magnet":"?xt=urn:btih:e2ea647dbda19fd7edc0672a7a38b670d79a866f&amp;dn=The+Matrix+Trilogy+1080p+%5BDual+Audio%5D%5BEng+Hindi%5DCurrent_HD&amp;tr=udp%3A%2F%2Ftracker.openbittorrent.com%3A80&amp;tr=udp%3A%2F%2Fopen.demonii.com%3A1337&amp;tr=udp%3A%2F%2Ftracker.coppersurfer.tk%3A6969&amp;tr=udp%3A%2F%2Fexodus.desync.com%3A6969","seeders":0,"leechers":3,"uploader":"CurrentHD","files":-1,"time":1299281625,"description":"        Ripper By........................CurrentHD\n\n\n         p r o u d l y   p r e s e n t s\n\n\n\nThe Matrix 1999\n\n\nGeneral\nComplete name                    : The Matrix (1999) 1080p [Dual Audio][Eng Hindi]Current_HD\nFormat                           : Matroska\nFile size                        : 2.32 GiB\nDuration                         : 2h 16mn\nOverall bit rate                 : 2 436 Kbps\nEncoded date                     : UTC 2011-01-20 05:37:25\nWriting application              : mkvmerge v4.5.0 \nWriting library                  : libebml v1.2.0 \n\n\nVideo\nID                               : 1\nFormat                           : AVC\nFormat/Info                      : Advanced Video Codec\nFormat profile                   : &lt;a class=&quot;__cf_email__&quot; href=&quot;/cdn-cgi/l/email-protection&quot; data-cfemail=&quot;d69ebfb1be969ae2f8e6&quot;&gt;[email&amp;#160;protected]&lt;/a&gt;&lt;script cf-hash='f9e31' type=&quot;text/javascript&quot;&gt;\n/* &lt;![CDATA[ */!function(){try{var t=&quot;currentScript&quot;in document?document.currentScript:function(){for(var t=document.getElementsByTagName(&quot;script&quot;),e=t.length;e--;)if(t[e].getAttribute(&quot;cf-hash&quot;))return t[e]}();if(t&amp;&amp;t.previousSibling){var e,r,n,i,c=t.previousSibling,a=c.getAttribute(&quot;data-cfemail&quot;);if(a){for(e=&quot;&quot;,r=parseInt(a.substr(0,2),16),n=2;a.length-n;n+=2)i=parseInt(a.substr(n,2),16)^r,e+=String.fromCharCode(i);e=document.createTextNode(e),c.parentNode.replaceChild(e,c)}}}catch(u){}}();/* ]]&gt; */&lt;/script&gt;\nFormat settings, CABAC           : Yes\nFormat settings, ReFrames        : 5 frames\nMuxing mode                      : Header stripping\nCodec ID                         : V_MPEG4/ISO/AVC\nDuration                         : 2h 16mn\nWidth                            : 1 920 pixels\nHeight                           : 800 pixels\nDisplay aspect ratio             : 2.40:1\nFrame rate                       : 23.976 fps\nColor space                      : YUV\nChroma subsampling               : 4:2:0\nBit depth                        : 8 bits\nScan type                        : Progressive\nTitle                            : CurrentHD\n\nAudio #1\nID                               : 2\nFormat                           : AAC\nFormat/Info                      : Advanced Audio Codec\nFormat profile                   : LC\nCodec ID                         : A_AAC\nDuration                         : 2h 16mn\nChannel(s)                       : 6 channels\nChannel positions                : Front: L C R, Side: L R, LFE\nSampling rate                    : 32.0 KHz\nCompression mode                 : Lossy\nTitle                            : CurrentHD\nLanguage                         : English\n\nAudio #2\nID                               : 3\nFormat                           : AC-3\nFormat/Info                      : Audio Coding 3\nMode extension                   : CM (complete main)\nMuxing mode                      : Header stripping\nCodec ID                         : A_AC3\nDuration                         : 2h 16mn\nBit rate mode                    : Constant\nBit rate                         : 224 Kbps\nChannel(s)                       : 6 channels\nChannel positions                : Front: L C R, Side: L R, LFE\nSampling rate                    : 48.0 KHz\nBit depth                        : 16 bits\nCompression mode                 : Lossy\nStream size                      : 219 MiB (9%)\nTitle                            : CurrentHD\nLanguage                         : Hindi\n\nText\nID                               : 4\nFormat                           : UTF-8\nCodec ID                         : S_TEXT/UTF8\nCodec ID/Info                    : UTF-8 Plain Text\nTitle                            : CurrentHD\nLanguage                         : English\n\n\n\nThe Matrix Reloaded\n\n\nGeneral\nComplete name                    : The Matrix Reloaded 1080p [Dual Audio][Eng Hindi]Current_HD\nFormat                           : Matroska\nFile size                        : 2.33 GiB\nDuration                         : 2h 18mn\nOverall bit rate                 : 2 415 Kbps\nEncoded date                     : UTC 2011-01-20 07:59:20\nWriting application              : mkvmerge v4.5.0\nWriting library                  : libebml v1.2.0 \n\n\nVideo\nID                               : 1\nFormat                           : AVC\nFormat/Info                      : Advanced Video Codec\nFormat profile                   : &lt;a class=&quot;__cf_email__&quot; href=&quot;/cdn-cgi/l/email-protection&quot; data-cfemail=&quot;3f775658577f730b110f&quot;&gt;[email&amp;#160;protected]&lt;/a&gt;&lt;script cf-hash='f9e31' type=&quot;text/javascript&quot;&gt;\n/* &lt;![CDATA[ */!function(){try{var t=&quot;currentScript&quot;in document?document.currentScript:function(){for(var t=document.getElementsByTagName(&quot;script&quot;),e=t.length;e--;)if(t[e].getAttribute(&quot;cf-hash&quot;))return t[e]}();if(t&amp;&amp;t.previousSibling){var e,r,n,i,c=t.previousSibling,a=c.getAttribute(&quot;data-cfemail&quot;);if(a){for(e=&quot;&quot;,r=parseInt(a.substr(0,2),16),n=2;a.length-n;n+=2)i=parseInt(a.substr(n,2),16)^r,e+=String.fromCharCode(i);e=document.createTextNode(e),c.parentNode.replaceChild(e,c)}}}catch(u){}}();/* ]]&gt; */&lt;/script&gt;\nFormat settings, CABAC           : Yes\nFormat settings, ReFrames        : 5 frames\nMuxing mode                      : Header stripping\nCodec ID                         : V_MPEG4/ISO/AVC\nDuration                         : 2h 18mn\nWidth                            : 1 920 pixels\nHeight                           : 800 pixels\nDisplay aspect ratio             : 2.40:1\nFrame rate                       : 23.976 fps\nColor space                      : YUV\nChroma subsampling               : 4:2:0\nBit depth                        : 8 bits\nScan type                        : Progressive\nTitle                            : CurrentHD\n\n\nAudio #1\nID                               : 2\nFormat                           : AAC\nFormat/Info                      : Advanced Audio Codec\nFormat profile                   : LC\nCodec ID                         : A_AAC\nDuration                         : 2h 18mn\nChannel(s)                       : 6 channels\nChannel positions                : Front: L C R, Side: L R, LFE\nSampling rate                    : 32.0 KHz\nCompression mode                 : Lossy\nTitle                            : CurrentHD\nLanguage                         : English\n\n\nAudio #2\nID                               : 3\nFormat                           : AC-3\nFormat/Info                      : Audio Coding 3\nMode extension                   : CM (complete main)\nMuxing mode                      : Header stripping\nCodec ID                         : A_AC3\nDuration                         : 2h 18mn\nBit rate mode                    : Constant\nBit rate                         : 224 Kbps\nChannel(s)                       : 6 channels\nChannel positions                : Front: L C R, Side: L R, LFE\nSampling rate                    : 48.0 KHz\nBit depth                        : 16 bits\nCompression mode                 : Lossy\nStream size                      : 222 MiB (9%)\nTitle                            : CurrentHD\nLanguage                         : Hindi\n\nText\nID                               : 4\nFormat                           : UTF-8\nCodec ID                         : S_TEXT/UTF8\nCodec ID/Info                    : UTF-8 Plain Text\nTitle                            : CurrentHD\nLanguage                         : English\n\n\n\n\nThe Matrix Revolutions\n\n\nGeneral\nComplete name                    : The Matrix Revolutions 1080p [Dual Audio][Eng Hindi]Current_HD\nFormat                           : Matroska\nFile size                        : 2.63 GiB\nDuration                         : 2h 9mn\nOverall bit rate                 : 2 914 Kbps\nMovie name                       : The.Matrix.Revolutions\nEncoded date                     : UTC 2011-01-20 13:34:55\nWriting application              : mkvmerge v4.5.0 \nWriting library                  : libebml v1.2.0 \n\n\nVideo\nID                               : 1\nFormat                           : AVC\nFormat/Info                      : Advanced Video Codec\nFormat profile                   : &lt;a class=&quot;__cf_email__&quot; href=&quot;/cdn-cgi/l/email-protection&quot; data-cfemail=&quot;da92b3bdb29a96eef4ea&quot;&gt;[email&amp;#160;protected]&lt;/a&gt;&lt;script cf-hash='f9e31' type=&quot;text/javascript&quot;&gt;\n/* &lt;![CDATA[ */!function(){try{var t=&quot;currentScript&quot;in document?document.currentScript:function(){for(var t=document.getElementsByTagName(&quot;script&quot;),e=t.length;e--;)if(t[e].getAttribute(&quot;cf-hash&quot;))return t[e]}();if(t&amp;&amp;t.previousSibling){var e,r,n,i,c=t.previousSibling,a=c.getAttribute(&quot;data-cfemail&quot;);if(a){for(e=&quot;&quot;,r=parseInt(a.substr(0,2),16),n=2;a.length-n;n+=2)i=parseInt(a.substr(n,2),16)^r,e+=String.fromCharCode(i);e=document.createTextNode(e),c.parentNode.replaceChild(e,c)}}}catch(u){}}();/* ]]&gt; */&lt;/script&gt;\nFormat settings, CABAC           : Yes\nFormat settings, ReFrames        : 5 frames\nMuxing mode                      : Header stripping\nCodec ID                         : V_MPEG4/ISO/AVC\nDuration                         : 2h 9mn\nWidth                            : 1 920 pixels\nHeight                           : 800 pixels\nDisplay aspect ratio             : 2.40:1\nFrame rate                       : 23.976 fps\nColor space                      : YUV\nChroma subsampling               : 4:2:0\nBit depth                        : 8 bits\nScan type                        : Progressive\nTitle                            : CurrentHD\n\n\nAudio #1\nID                               : 2\nFormat                           : AAC\nFormat/Info                      : Advanced Audio Codec\nFormat profile                   : LC\nCodec ID                         : A_AAC\nDuration                         : 2h 9mn\nChannel(s)                       : 6 channels\nChannel positions                : Front: L C R, Side: L R, LFE\nSampling rate                    : 32.0 KHz\nCompression mode                 : Lossy\nTitle                            : CurrentHD\nLanguage                         : English\n\n\nAudio #2\nID                               : 3\nFormat                           : AC-3\nFormat/Info                      : Audio Coding 3\nMode extension                   : CM (complete main)\nMuxing mode                      : Header stripping\nCodec ID                         : A_AC3\nDuration                         : 2h 9mn\nBit rate mode                    : Constant\nBit rate                         : 224 Kbps\nChannel(s)                       : 6 channels\nChannel positions                : Front: L C R, Side: L R, LFE\nSampling rate                    : 48.0 KHz\nBit depth                        : 16 bits\nCompression mode                 : Lossy\nStream size                      : 207 MiB (8%)\nTitle                            : CurrentHD\nLanguage                         : Hindi\n\nText\nID                               : 4\nFormat                           : UTF-8\nCodec ID                         : S_TEXT/UTF8\nCodec ID/Info                    : UTF-8 Plain Text\nTitle                            : CurrentHD\nLanguage                         : English\n\n\n\n\nSCREENSHOTS\n &lt;a href=&quot;\nhttp://img607.imageshack.us/img607/3748/84555.png&quot; rel=&quot;nofollow&quot; target=&quot;_NEW&quot;&gt;\nhttp://img607.imageshack.us/img607/3748/84555.png&lt;/a&gt; &lt;a href=&quot;\nhttp://img813.imageshack.us/img813/6164/84838.png&quot; rel=&quot;nofollow&quot; target=&quot;_NEW&quot;&gt;\nhttp://img813.imageshack.us/img813/6164/84838.png&lt;/a&gt; &lt;a href=&quot;\nhttp://img12.imageshack.us/img12/7464/95648.png&quot; rel=&quot;nofollow&quot; target=&quot;_NEW&quot;&gt;\nhttp://img12.imageshack.us/img12/7464/95648.png&lt;/a&gt; &lt;a href=&quot;\nhttp://img715.imageshack.us/img715/3355/162062.png&quot; rel=&quot;nofollow&quot; target=&quot;_NEW&quot;&gt;\nhttp://img715.imageshack.us/img715/3355/162062.png&lt;/a&gt; &lt;a href=&quot;\nhttp://img141.imageshack.us/img141/7362/10027.png&quot; rel=&quot;nofollow&quot; target=&quot;_NEW&quot;&gt;\nhttp://img141.imageshack.us/img141/7362/10027.png&lt;/a&gt; &lt;a href=&quot;\nhttp://img541.imageshack.us/img541/737/20046.png&quot; rel=&quot;nofollow&quot; target=&quot;_NEW&quot;&gt;\nhttp://img541.imageshack.us/img541/737/20046.png&lt;/a&gt; &lt;a href=&quot;\nhttp://img714.imageshack.us/img714/6980/51988.png&quot; rel=&quot;nofollow&quot; target=&quot;_NEW&quot;&gt;\nhttp://img714.imageshack.us/img714/6980/51988.png&lt;/a&gt; &lt;a href=&quot;\nhttp://img220.imageshack.us/img220/5323/11032.png&quot; rel=&quot;nofollow&quot; target=&quot;_NEW&quot;&gt;\nhttp://img220.imageshack.us/img220/5323/11032.png&lt;/a&gt; &lt;a href=&quot;\nhttp://img27.imageshack.us/img27/5091/11541.png&quot; rel=&quot;nofollow&quot; target=&quot;_NEW&quot;&gt;\nhttp://img27.imageshack.us/img27/5091/11541.png&lt;/a&gt; &lt;a href=&quot;\nhttp://img541.imageshack.us/img541/1261/18996.png&quot; rel=&quot;nofollow&quot; target=&quot;_NEW&quot;&gt;\nhttp://img541.imageshack.us/img541/1261/18996.png&lt;/a&gt; &lt;a href=&quot;\nhttp://img19.imageshack.us/img19/686/51201.png&quot; rel=&quot;nofollow&quot; target=&quot;_NEW&quot;&gt;\nhttp://img19.imageshack.us/img19/686/51201.png&lt;/a&gt;\n\n","torrent":{"xt":"urn:btih:e2ea647dbda19fd7edc0672a7a38b670d79a866f","amp;dn":"The+Matrix+Trilogy+1080p+%5BDual+Audio%5D%5BEng+Hindi%5DCurrent_HD","amp;tr":["udp%3A%2F%2Ftracker.openbittorrent.com%3A80","udp%3A%2F%2Fopen.demonii.com%3A1337","udp%3A%2F%2Ftracker.coppersurfer.tk%3A6969","udp%3A%2F%2Fexodus.desync.com%3A6969"],"infoHash":"e2ea647dbda19fd7edc0672a7a38b670d79a866f","infoHashBuffer":{"type":"Buffer","data":[226,234,100,125,189,161,159,215,237,192,103,42,122,56,182,112,215,154,134,111]},"announce":[],"urlList":[]}}